<svg width="56" height="50" viewBox="0 0 56 50" fill="none" xmlns="http://www.w3.org/2000/svg">
<path d="M20.5742 41.056L41.5182 21.6956L31.5702 12.4997L10.6262 31.8601C10.3379 32.127 10.1331 32.461 10.0335 32.8268L7.71216 43.7497L19.5262 41.6039C19.9229 41.5122 20.2858 41.3227 20.5742 41.056ZM48.2794 15.4456C49.1244 14.6642 49.5991 13.6046 49.5991 12.4997C49.5991 11.3949 49.1244 10.3353 48.2794 9.5539L44.705 6.24973C43.8597 5.4686 42.7134 5.02979 41.5182 5.02979C40.323 5.02979 39.1767 5.4686 38.3314 6.24973L34.757 9.5539L44.705 18.7497L48.2794 15.4456Z" fill="#21262A"/>
</svg>
