<svg width="34" height="34" viewBox="0 0 34 34" fill="none" xmlns="http://www.w3.org/2000/svg">
<path d="M32.64 3.06H25.5V0.34C25.5 0.153 25.347 0 25.16 0H22.78C22.593 0 22.44 0.153 22.44 0.34V3.06H11.56V0.34C11.56 0.153 11.407 0 11.22 0H8.84C8.653 0 8.5 0.153 8.5 0.34V3.06H1.36C0.60775 3.06 0 3.66775 0 4.42V32.64C0 33.3923 0.60775 34 1.36 34H32.64C33.3923 34 34 33.3923 34 32.64V4.42C34 3.66775 33.3923 3.06 32.64 3.06ZM30.94 30.94H3.06V14.79H30.94V30.94ZM30.94 11.9H3.06V6.12H8.5V8.16C8.5 8.347 8.653 8.5 8.84 8.5H11.22C11.407 8.5 11.56 8.347 11.56 8.16V6.12H22.44V8.16C22.44 8.347 22.593 8.5 22.78 8.5H25.16C25.347 8.5 25.5 8.347 25.5 8.16V6.12H30.94V11.9Z" fill="white"/>
</svg>
