<svg width="45" height="45" viewBox="0 0 45 45" fill="none" xmlns="http://www.w3.org/2000/svg">
<path d="M31.2891 13.3594C31.2891 13.5527 31.1309 13.7109 30.9375 13.7109H28.4766C28.2832 13.7109 28.125 13.5527 28.125 13.3594V11.25H16.875V13.3594C16.875 13.5527 16.7168 13.7109 16.5234 13.7109H14.0625C13.8691 13.7109 13.7109 13.5527 13.7109 13.3594V11.25H8.08594V17.2266H36.9141V11.25H31.2891V13.3594Z" fill="black" fill-opacity="0.15"/>
<path d="M38.6719 8.08594H31.2891V5.27344C31.2891 5.08008 31.1309 4.92188 30.9375 4.92188H28.4766C28.2832 4.92188 28.125 5.08008 28.125 5.27344V8.08594H16.875V5.27344C16.875 5.08008 16.7168 4.92188 16.5234 4.92188H14.0625C13.8691 4.92188 13.7109 5.08008 13.7109 5.27344V8.08594H6.32812C5.55029 8.08594 4.92188 8.71436 4.92188 9.49219V38.6719C4.92188 39.4497 5.55029 40.0781 6.32812 40.0781H38.6719C39.4497 40.0781 40.0781 39.4497 40.0781 38.6719V9.49219C40.0781 8.71436 39.4497 8.08594 38.6719 8.08594ZM36.9141 36.9141H8.08594V20.2148H36.9141V36.9141ZM36.9141 17.2266H8.08594V11.25H13.7109V13.3594C13.7109 13.5527 13.8691 13.7109 14.0625 13.7109H16.5234C16.7168 13.7109 16.875 13.5527 16.875 13.3594V11.25H28.125V13.3594C28.125 13.5527 28.2832 13.7109 28.4766 13.7109H30.9375C31.1309 13.7109 31.2891 13.5527 31.2891 13.3594V11.25H36.9141V17.2266Z" fill="black"/>
</svg>
