<svg width="110" height="110" viewBox="0 0 110 110" fill="none" xmlns="http://www.w3.org/2000/svg">
<path d="M27.5 22.7495V16.0417C27.5 14.2184 28.2243 12.4697 29.5136 11.1804C30.803 9.89108 32.5516 9.16675 34.375 9.16675H93.9583C95.7817 9.16675 97.5304 9.89108 98.8197 11.1804C100.109 12.4697 100.833 14.2184 100.833 16.0417V75.6251C100.833 77.4484 100.109 79.1971 98.8197 80.4864C97.5304 81.7758 95.7817 82.5001 93.9583 82.5001H87.1223" stroke="black" stroke-width="4"/>
<path d="M80.2082 22.9167H16.0415C12.2445 22.9167 9.1665 25.9948 9.1665 29.7917V93.9584C9.1665 97.7554 12.2445 100.833 16.0415 100.833H80.2082C84.0051 100.833 87.0832 97.7554 87.0832 93.9584V29.7917C87.0832 25.9948 84.0051 22.9167 80.2082 22.9167Z" stroke="black" stroke-width="4" stroke-linejoin="round"/>
<path d="M42.2578 52.9605L54.3853 40.3334C57.7128 37.0082 63.1784 37.0792 66.5953 40.4984C70.0145 43.913 70.0878 49.3809 66.7603 52.7084L62.3832 57.3444" stroke="black" stroke-width="4" stroke-linecap="round" stroke-linejoin="round"/>
<path d="M30.8592 65.8784C29.6905 67.0472 27.2728 69.3847 27.2728 69.3847C23.9453 72.7076 23.8536 78.6384 27.2728 82.0576C30.6874 85.4722 36.1553 85.5455 39.4828 82.218L51.317 71.4747" stroke="black" stroke-width="4" stroke-linecap="round" stroke-linejoin="round"/>
<path d="M42.7689 64.9185C41.2475 63.4056 40.3272 61.3917 40.1793 59.2512C40.0911 58.0506 40.2619 56.8451 40.6803 55.7162C41.0986 54.5874 41.7546 53.5617 42.6039 52.7085" stroke="black" stroke-width="4" stroke-linecap="round" stroke-linejoin="round"/>
<path d="M51.1543 59.2646C54.5689 62.6815 54.6445 68.1494 51.317 71.4746" stroke="black" stroke-width="4" stroke-linecap="round" stroke-linejoin="round"/>
</svg>
