<svg width="100" height="100" viewBox="0 0 100 100" fill="none" xmlns="http://www.w3.org/2000/svg">
<g clip-path="url(#clip0_171_532)">
<path d="M94.4809 100C97.5285 100 100 97.5293 100 94.4812V5.51914C100 2.4707 97.5285 0 94.4809 0H5.51914C2.47031 0 0 2.4707 0 5.51914V94.4812C0 97.5293 2.47031 100 5.51914 100H94.4809Z" fill="#395185"/>
<path d="M68.9981 100V61.275H81.997L83.9431 46.1832H68.9981V36.5473C68.9981 32.1777 70.2118 29.2 76.4778 29.2L84.4696 29.1965V15.6984C83.0868 15.5145 78.3431 15.1035 72.8243 15.1035C61.3017 15.1035 53.4134 22.1367 53.4134 35.0531V46.1832H40.3813V61.275H53.4134V100H68.9981Z" fill="white"/>
</g>
<defs>
<clipPath id="clip0_171_532">
<rect width="100" height="100" fill="white"/>
</clipPath>
</defs>
</svg>
