<svg width="100" height="100" viewBox="0 0 100 100" fill="none" xmlns="http://www.w3.org/2000/svg">
<g clip-path="url(#clip0_171_542)">
<path d="M100 12.177C96.3203 14.1756 92.3664 15.5263 88.2164 16.134C92.4527 13.0239 95.7055 8.09905 97.2371 2.23111C93.21 5.15831 88.8039 7.22071 84.2094 8.3292C80.4668 3.44546 75.1352 0.393311 69.234 0.393311C57.9035 0.393311 48.7172 11.645 48.7172 25.5225C48.7172 27.4924 48.8988 29.4101 49.2484 31.2498C32.1977 30.2014 17.0805 20.1971 6.96133 4.99331C5.1957 8.70479 4.18398 13.022 4.18398 17.6268C4.18398 26.3455 7.80625 34.0369 13.3109 38.5436C10.0529 38.4186 6.8666 37.3407 4.01797 35.4C4.0168 35.5053 4.0168 35.6105 4.0168 35.7163C4.0168 47.8919 11.0887 58.0488 20.4738 60.3574C17.4527 61.3638 14.2837 61.5111 11.209 60.7881C13.8195 70.7718 21.3965 78.0369 30.3738 78.2402C23.3523 84.9799 14.5059 88.9976 4.89414 88.9976C3.23789 88.9976 1.60508 88.8785 0 88.6464C9.0793 95.7766 19.8633 99.9369 31.4492 99.9369C69.1863 99.9369 89.8219 61.6445 89.8219 28.4369C89.8219 27.3469 89.8023 26.2632 89.7625 25.1857C93.779 21.6291 97.2458 17.224 100 12.177Z" fill="#55ACEE"/>
</g>
<defs>
<clipPath id="clip0_171_542">
<rect width="100" height="100" fill="white"/>
</clipPath>
</defs>
</svg>
