<svg width="100" height="100" viewBox="0 0 100 100" fill="none" xmlns="http://www.w3.org/2000/svg">
<path d="M50 9.00937C63.3504 9.00937 64.9316 9.06016 70.2039 9.30039C75.0789 9.52305 77.7266 10.3375 79.4887 11.0223C81.8223 11.9293 83.4879 13.0129 85.2375 14.7625C86.9875 16.5121 88.0707 18.1777 88.9777 20.5113C89.6625 22.2734 90.477 24.9211 90.6996 29.7957C90.9398 35.0684 90.9906 36.6496 90.9906 50C90.9906 63.3508 90.9398 64.932 90.6996 70.2043C90.477 75.0793 89.6625 77.7266 88.9777 79.4887C88.0707 81.8223 86.9871 83.4883 85.2375 85.2379C83.4879 86.9875 81.8223 88.0711 79.4887 88.9777C77.7266 89.6625 75.0789 90.4773 70.2039 90.6996C64.9324 90.9402 63.3512 90.991 50 90.991C36.6484 90.991 35.0672 90.9402 29.7957 90.6996C24.9207 90.477 22.2734 89.6625 20.5113 88.9777C18.1777 88.0711 16.5117 86.9875 14.7621 85.2379C13.0125 83.4879 11.9289 81.8223 11.0223 79.4887C10.3375 77.727 9.52266 75.0793 9.30039 70.2043C9.05977 64.932 9.00898 63.3508 9.00898 50C9.00898 36.6496 9.05977 35.0684 9.30039 29.7961C9.52305 24.9211 10.3375 22.2734 11.0223 20.5113C11.9289 18.1777 13.0125 16.5121 14.7621 14.7625C16.5121 13.0125 18.1777 11.9293 20.5113 11.0223C22.273 10.3375 24.9207 9.52305 29.7957 9.30039C35.068 9.06016 36.6492 9.00937 50 9.00937ZM50 0C36.4207 0 34.718 0.0574219 29.3852 0.300781C24.0629 0.54375 20.4281 1.38906 17.248 2.625C13.9598 3.90273 11.1715 5.6125 8.3918 8.39219C5.61211 11.1719 3.90273 13.9602 2.625 17.248C1.38867 20.4285 0.54375 24.0633 0.300781 29.3852C0.0574219 34.718 0 36.4207 0 50C0 63.5793 0.0574219 65.282 0.300781 70.6148C0.54375 75.9371 1.38867 79.5719 2.625 82.752C3.90234 86.0398 5.61211 88.8285 8.3918 91.6082C11.1715 94.3879 13.9598 96.0973 17.248 97.375C20.4285 98.6113 24.0629 99.4562 29.3848 99.6992C34.718 99.9426 36.4207 100 50 100C63.5793 100 65.282 99.9426 70.6148 99.6992C75.9367 99.4562 79.5715 98.6113 82.7516 97.375C86.0398 96.0977 88.8281 94.3879 91.6078 91.6082C94.3875 88.8285 96.0973 86.0402 97.375 82.752C98.6109 79.5715 99.4562 75.9371 99.6992 70.6152C99.9426 65.282 100 63.5793 100 50C100 36.4207 99.9426 34.718 99.6992 29.3852C99.4562 24.0633 98.6109 20.4285 97.375 17.2484C96.0973 13.9602 94.3875 11.1719 91.6078 8.39219C88.8281 5.6125 86.0398 3.90234 82.752 2.625C79.5715 1.38906 75.9367 0.54375 70.6148 0.300781C65.282 0.0574219 63.5793 0 50 0ZM50 24.3242C35.8195 24.3242 24.3242 35.8203 24.3242 50C24.3242 64.1805 35.8195 75.6758 50 75.6758C64.1801 75.6758 75.6758 64.1805 75.6758 50C75.6758 35.8199 64.1801 24.3242 50 24.3242ZM50 66.6668C40.7953 66.6668 33.3332 59.2047 33.3332 50C33.3332 40.7953 40.7953 33.3332 50 33.3332C59.2047 33.3332 66.6668 40.7953 66.6668 50C66.6668 59.2047 59.2047 66.6668 50 66.6668ZM82.6898 23.3098C82.6898 26.6238 80.0039 29.3098 76.6898 29.3098C73.3762 29.3098 70.6898 26.6238 70.6898 23.3098C70.6898 19.9961 73.3762 17.3098 76.6898 17.3098C80.0039 17.3098 82.6898 19.9961 82.6898 23.3098Z" fill="#0A0A08"/>
</svg>
