<svg width="43" height="39" viewBox="0 0 43 39" fill="none" xmlns="http://www.w3.org/2000/svg">
<path d="M13.6233 36.056L34.5673 16.6956L24.6193 7.49973L3.67531 26.8601C3.38698 27.127 3.18216 27.461 3.08258 27.8268L0.76123 38.7497L12.5753 36.6039C12.972 36.5122 13.3348 36.3227 13.6233 36.056V36.056ZM41.3285 10.4456C42.1735 9.6642 42.6482 8.60458 42.6482 7.49973C42.6482 6.39488 42.1735 5.33526 41.3285 4.5539L37.7541 1.24973C36.9088 0.468599 35.7625 0.0297852 34.5673 0.0297852C33.3721 0.0297852 32.2258 0.468599 31.3805 1.24973L27.8061 4.5539L37.7541 13.7497L41.3285 10.4456Z" fill="white"/>
</svg>
