<svg width="43" height="39" viewBox="0 0 43 39" fill="none" xmlns="http://www.w3.org/2000/svg">
<path d="M13.5742 36.056L34.5182 16.6956L24.5702 7.49973L3.62624 26.8601C3.33791 27.127 3.13309 27.461 3.03351 27.8268L0.712158 38.7497L12.5262 36.6039C12.9229 36.5122 13.2858 36.3227 13.5742 36.056ZM41.2794 10.4456C42.1244 9.6642 42.5991 8.60458 42.5991 7.49973C42.5991 6.39488 42.1244 5.33526 41.2794 4.5539L37.705 1.24973C36.8597 0.468599 35.7134 0.0297852 34.5182 0.0297852C33.323 0.0297852 32.1767 0.468599 31.3314 1.24973L27.757 4.5539L37.705 13.7497L41.2794 10.4456Z" fill="#21262A"/>
</svg>
