<svg width="36" height="36" viewBox="0 0 36 36" fill="none" xmlns="http://www.w3.org/2000/svg">
<path d="M34.8985 0.728883C34.7941 0.468804 34.5934 0.258999 34.3382 0.143113C34.083 0.0272264 33.793 0.0141826 33.5284 0.106695C33.2639 0.199207 33.0452 0.390152 32.9178 0.639806C32.7905 0.889461 32.7643 1.1786 32.8447 1.44708C34.5169 6.25308 31.1977 9.84228 28.6669 11.7647L27.6445 10.2995C27.3007 9.80808 26.5321 9.39948 25.9345 9.39228L20.1961 9.41748C19.4951 9.43865 18.8128 9.64886 18.2215 10.0259L1.31229 21.8825C0.918977 22.1593 0.651361 22.5806 0.568032 23.0543C0.484703 23.5279 0.592451 24.0153 0.867686 24.4097L8.55189 35.4041C9.12789 36.2231 10.0477 36.1241 10.8685 35.5517L27.7777 23.6933C28.2637 23.3495 28.8253 22.6079 29.0233 22.0409L30.8197 16.3799C31.0177 15.8147 30.8971 14.9525 30.5533 14.4611L29.9305 13.5683C33.3289 10.9637 36.8569 6.36108 34.8985 0.728883ZM27.0307 17.5733C26.7192 17.7913 26.3678 17.9459 25.9965 18.0281C25.6252 18.1103 25.2414 18.1185 24.867 18.0523C24.4926 17.9861 24.1348 17.8468 23.8143 17.6423C23.4937 17.4378 23.2166 17.1721 22.9987 16.8605C22.5576 16.2299 22.3847 15.45 22.518 14.692C22.6513 13.9341 23.0799 13.26 23.7097 12.8177C24.2034 12.4718 24.7929 12.2887 25.3958 12.2942C25.9986 12.2997 26.5847 12.4934 27.0721 12.8483C26.5825 13.1435 26.2459 13.3163 26.1829 13.3433C25.9598 13.4497 25.7794 13.6287 25.6713 13.851C25.5632 14.0733 25.5339 14.3258 25.5881 14.567C25.6423 14.8081 25.7767 15.0238 25.9695 15.1785C26.1623 15.3333 26.4019 15.4179 26.6491 15.4187C26.8039 15.4187 26.9623 15.3827 27.1117 15.3125C27.4609 15.1469 27.8353 14.9507 28.2259 14.7185C28.3157 15.2586 28.2512 15.8131 28.0398 16.3182C27.8283 16.8232 27.4785 17.2583 27.0307 17.5733Z" fill="#F8F8F8"/>
</svg>
