<svg width="25" height="27" viewBox="0 0 25 27" fill="none" xmlns="http://www.w3.org/2000/svg">
<g clip-path="url(#clip0_150_126)">
<path d="M18.3463 17.457C19.8593 15.2273 20.5369 12.4628 20.2437 9.7167C19.9504 6.97056 18.7079 4.44527 16.7647 2.64604C14.8215 0.846816 12.3209 -0.0936566 9.76326 0.0127793C7.20558 0.119215 4.77943 1.26471 2.97018 3.22009C1.16094 5.17548 0.102029 7.79654 0.00530708 10.5589C-0.0914145 13.3213 0.781183 16.0212 2.44852 18.1186C4.11587 20.216 6.45499 21.5561 8.99792 21.8708C11.5408 22.1856 14.1 21.4517 16.1635 19.8161H16.162C16.2088 19.8836 16.2588 19.9478 16.3151 20.0102L22.3307 26.5071C22.6237 26.8237 23.0211 27.0017 23.4356 27.0019C23.8501 27.002 24.2477 26.8243 24.5409 26.5079C24.834 26.1915 24.9988 25.7623 24.999 25.3146C24.9991 24.867 24.8346 24.4376 24.5416 24.1209L18.526 17.6241C18.4702 17.563 18.4101 17.5066 18.3463 17.4553V17.457ZM18.7495 10.9703C18.7495 12.1891 18.5272 13.396 18.0953 14.522C17.6634 15.6481 17.0304 16.6713 16.2324 17.5331C15.4344 18.3949 14.487 19.0786 13.4444 19.545C12.4017 20.0114 11.2842 20.2515 10.1557 20.2515C9.02715 20.2515 7.90966 20.0114 6.86702 19.545C5.82437 19.0786 4.87701 18.3949 4.079 17.5331C3.281 16.6713 2.64799 15.6481 2.21611 14.522C1.78423 13.396 1.56195 12.1891 1.56195 10.9703C1.56195 8.50872 2.46736 6.148 4.079 4.40743C5.69064 2.66686 7.8765 1.68901 10.1557 1.68901C12.4349 1.68901 14.6208 2.66686 16.2324 4.40743C17.844 6.148 18.7495 8.50872 18.7495 10.9703Z" fill="#B5B5B5"/>
</g>
<defs>
<clipPath id="clip0_150_126">
<rect width="25" height="27" fill="white"/>
</clipPath>
</defs>
</svg>
