<svg width="25" height="27" viewBox="0 0 25 27" fill="none" xmlns="http://www.w3.org/2000/svg">
<g clip-path="url(#clip0_156_480)">
<path d="M18.3461 17.457C19.859 15.2273 20.5367 12.4628 20.2434 9.7167C19.9502 6.97056 18.7077 4.44527 16.7645 2.64604C14.8213 0.846816 12.3207 -0.0936566 9.76301 0.0127793C7.20534 0.119215 4.77918 1.26471 2.96994 3.22009C1.16069 5.17548 0.101785 7.79654 0.00506294 10.5589C-0.0916587 13.3213 0.780939 16.0212 2.44828 18.1186C4.11562 20.216 6.45474 21.5561 8.99767 21.8708C11.5406 22.1856 14.0998 21.4517 16.1633 19.8161H16.1617C16.2086 19.8836 16.2586 19.9478 16.3148 20.0102L22.3305 26.5071C22.6234 26.8237 23.0209 27.0017 23.4354 27.0019C23.8499 27.002 24.2474 26.8243 24.5406 26.5079C24.8338 26.1915 24.9986 25.7623 24.9987 25.3146C24.9989 24.867 24.8344 24.4376 24.5414 24.1209L18.5258 17.6241C18.4699 17.563 18.4098 17.5066 18.3461 17.4553V17.457ZM18.7492 10.9703C18.7492 12.1891 18.5269 13.396 18.095 14.522C17.6632 15.6481 17.0302 16.6713 16.2322 17.5331C15.4342 18.3949 14.4868 19.0786 13.4441 19.545C12.4015 20.0114 11.284 20.2515 10.1555 20.2515C9.02691 20.2515 7.90941 20.0114 6.86677 19.545C5.82413 19.0786 4.87676 18.3949 4.07876 17.5331C3.28075 16.6713 2.64774 15.6481 2.21587 14.522C1.78399 13.396 1.56171 12.1891 1.56171 10.9703C1.56171 8.50872 2.46712 6.148 4.07876 4.40743C5.6904 2.66686 7.87625 1.68901 10.1555 1.68901C12.4347 1.68901 14.6205 2.66686 16.2322 4.40743C17.8438 6.148 18.7492 8.50872 18.7492 10.9703Z" fill="white"/>
</g>
<defs>
<clipPath id="clip0_156_480">
<rect width="25" height="27" fill="white"/>
</clipPath>
</defs>
</svg>
