<svg width="32" height="32" viewBox="0 0 32 32" fill="none" xmlns="http://www.w3.org/2000/svg">
<path d="M27.351 7.448L26.6217 8.17733C26.2503 8.54864 25.7467 8.75723 25.2216 8.75723C24.6964 8.75723 24.1928 8.54864 23.8215 8.17733C23.4502 7.80603 23.2416 7.30244 23.2416 6.77733C23.2416 6.25223 23.4502 5.74864 23.8215 5.37733L24.5509 4.648L19.9026 0L14.0355 5.86667L13.7689 6.67267L12.9628 6.93933L0 19.9013L4.65096 24.552L5.38034 23.8227C5.75166 23.4514 6.25529 23.2428 6.78042 23.2428C7.30556 23.2428 7.80919 23.4514 8.18051 23.8227C8.55184 24.194 8.76045 24.6976 8.76045 25.2227C8.76045 25.7478 8.55184 26.2514 8.18051 26.6227L7.45113 27.352L12.0994 32L25.0602 19.04L25.3269 18.234L26.133 17.9673L32 12.1007L27.351 7.448ZM13.4462 7.81L14.9043 6.352L17.1044 8.552L15.6456 10.01L13.4462 7.81ZM16.313 10.6767L17.7718 9.218L19.9399 11.386L18.4812 12.8447L16.313 10.6767ZM19.1505 13.514L20.6093 12.0553L22.7774 14.2233L21.3213 15.6853L19.1505 13.514ZM24.1888 18.5513L21.9887 16.3513L23.4468 14.8927L25.6469 17.0927L24.1888 18.5513Z" fill="#21262A"/>
</svg>
