<svg width="28" height="27" viewBox="0 0 28 27" fill="none" xmlns="http://www.w3.org/2000/svg">
<g clip-path="url(#clip0_184_136)">
<path fill-rule="evenodd" clip-rule="evenodd" d="M18.3219 2.65686V6.5258C20.967 7.98674 22.6569 10.8477 22.6569 14.066C22.6569 18.7667 18.7863 22.5797 14.0132 22.5797C9.24328 22.5797 5.37269 18.7684 5.37269 14.066C5.37269 10.7439 7.03952 7.89121 9.81316 6.48792V2.65356C4.97575 4.25945 1.75081 8.73615 1.75081 14.066C1.75081 20.7399 7.2421 26.1472 14.0115 26.1472C20.7826 26.1472 26.2755 20.7399 26.2755 14.066C26.2772 8.83333 23.0259 4.34509 18.3219 2.65686Z" fill="#21262A"/>
<path fill-rule="evenodd" clip-rule="evenodd" d="M13.9341 12.9673C15.2155 12.9673 16.2597 12.1767 16.2597 11.1967V1.83651C16.2597 0.858153 15.2155 0.065918 13.9341 0.065918C12.651 0.065918 11.6084 0.858153 11.6084 1.83651V11.1967C11.6084 12.1767 12.651 12.9673 13.9341 12.9673Z" fill="#21262A"/>
</g>
<defs>
<clipPath id="clip0_184_136">
<rect width="28" height="26.3529" fill="white"/>
</clipPath>
</defs>
</svg>
